<svg width="17" height="17" viewBox="0 0 17 17" fill="none" xmlns="http://www.w3.org/2000/svg">
<path d="M2.83317 14.4583C2.44359 14.4583 2.11008 14.3196 1.83265 14.0422C1.55522 13.7648 1.4165 13.4312 1.4165 13.0417V4.54167C1.4165 4.15208 1.55522 3.81858 1.83265 3.54115C2.11008 3.26372 2.44359 3.125 2.83317 3.125H14.1665C14.5561 3.125 14.8896 3.26372 15.167 3.54115C15.4445 3.81858 15.5832 4.15208 15.5832 4.54167V13.0417C15.5832 13.4312 15.4445 13.7648 15.167 14.0422C14.8896 14.3196 14.5561 14.4583 14.1665 14.4583H2.83317ZM8.49984 9.5L2.83317 5.95833V13.0417H14.1665V5.95833L8.49984 9.5ZM8.49984 8.08333L14.1665 4.54167H2.83317L8.49984 8.08333ZM2.83317 5.95833V4.54167V13.0417V5.95833Z" fill="#999999"/>
</svg>
