<svg width="256" height="110" viewBox="0 0 256 110" fill="none" xmlns="http://www.w3.org/2000/svg">
<path d="M240.504 28.7427C241.294 32.1467 239.156 36.2214 234.203 40.7355C229.285 45.2176 221.738 49.9945 212.108 54.7765C192.854 64.337 165.377 73.8684 134.241 81.0941C103.106 88.3198 74.2385 91.8643 52.7423 91.7606C41.9901 91.7088 33.1105 90.7441 26.7211 88.886C20.2861 87.0148 16.5729 84.2978 15.7829 80.8938C14.9929 77.4899 17.1301 73.4152 22.0832 68.9011C27.0012 64.4189 34.5484 59.6421 44.1787 54.86C63.4321 45.2996 90.9098 35.7681 122.045 28.5425C153.181 21.3168 182.048 17.7723 203.544 17.8759C214.296 17.9278 223.176 18.8925 229.565 20.7505C236 22.6218 239.714 25.3387 240.504 28.7427Z" stroke="black" stroke-opacity="0.4"/>
<path d="M248.419 26.8759C249.209 30.2799 247.072 34.3545 242.118 38.8687C237.2 43.3508 229.653 48.1277 220.023 52.9097C200.769 62.4702 173.292 72.0016 142.156 79.2273C111.021 86.4529 82.1535 89.9975 60.6573 89.8938C49.9051 89.8419 41.0256 88.8773 34.6362 87.0192C28.2012 85.1479 24.4879 82.431 23.6979 79.027C22.908 75.623 25.0451 71.5484 29.9982 67.0343C34.9163 62.5521 42.4634 57.7753 52.0938 52.9932C71.3472 43.4327 98.8248 33.9013 129.96 26.6756C161.096 19.45 189.963 15.9054 211.459 16.0091C222.212 16.061 231.091 17.0257 237.48 18.8837C243.915 20.755 247.629 23.4719 248.419 26.8759Z" stroke="black" stroke-opacity="0.2"/>
<path d="M231.419 30.8759C232.209 34.2799 230.072 38.3545 225.118 42.8687C220.2 47.3508 212.653 52.1277 203.023 56.9097C183.769 66.4702 156.292 76.0016 125.156 83.2273C94.0205 90.4529 65.1535 93.9975 43.6573 93.8938C32.9051 93.8419 24.0256 92.8773 17.6362 91.0192C11.2012 89.1479 7.4879 86.431 6.69794 83.027C5.90797 79.623 8.04512 75.5484 12.9982 71.0343C17.9163 66.5521 25.4634 61.7753 35.0938 56.9932C54.3472 47.4327 81.8248 37.9013 112.96 30.6756C144.096 23.45 172.963 19.9054 194.459 20.0091C205.212 20.061 214.091 21.0257 220.48 22.8837C226.915 24.755 230.629 27.4719 231.419 30.8759Z" stroke="black" stroke-opacity="0.5"/>
</svg>
