<svg width="289" height="115" viewBox="0 0 289 115" fill="none" xmlns="http://www.w3.org/2000/svg">
<path d="M238 18C238 18 239.011 36.587 242.989 41.0106C246.968 45.4343 266 46 266 46C266 46 247.011 46.587 242.989 50.9893C238.968 55.3917 238 74 238 74C238 74 237.511 55.587 233.011 50.9893C228.511 46.3917 210 46 210 46C210 46 229.011 45.4343 233.011 41.0106C237.011 36.587 238 18 238 18Z" fill="#48523F"/>
<path d="M271 14C271 14 271.65 25.9488 274.207 28.7926C276.765 31.6364 289 32 289 32C289 32 276.793 32.3773 274.207 35.2074C271.622 38.0375 271 50 271 50C271 50 270.685 38.1631 267.793 35.2074C264.9 32.2518 253 32 253 32C253 32 265.221 31.6364 267.793 28.7926C270.364 25.9488 271 14 271 14Z" fill="#48523F"/>
<path d="M29.5 32C29.5 32 29.8429 38.3063 31.1928 39.8072C32.5428 41.3081 39 41.5 39 41.5C39 41.5 32.5572 41.6992 31.1928 43.1928C29.8285 44.6865 29.5 51 29.5 51C29.5 51 29.334 44.7527 27.8072 43.1928C26.2804 41.6329 20 41.5 20 41.5C20 41.5 26.4501 41.3081 27.8072 39.8072C29.1644 38.3063 29.5 32 29.5 32Z" fill="#48523F"/>
<path d="M15 85C15 85 15.5414 94.9573 17.6729 97.3271C19.8043 99.697 30 100 30 100C30 100 19.8271 100.314 17.6729 102.673C15.5186 105.031 15 115 15 115C15 115 14.7379 105.136 12.3271 102.673C9.91642 100.21 0 100 0 100C0 100 10.1843 99.697 12.3271 97.3271C14.47 94.9573 15 85 15 85Z" fill="#48523F"/>
<path d="M252 -3.02577e-06C252 -3.02577e-06 252.505 9.29349 254.495 11.5053C256.484 13.7172 266 14 266 14C266 14 256.505 14.2935 254.495 16.4947C252.484 18.6959 252 28 252 28C252 28 251.755 18.7935 249.505 16.4947C247.255 14.1959 238 14 238 14C238 14 247.505 13.7172 249.505 11.5053C251.505 9.29349 252 -3.02577e-06 252 -3.02577e-06Z" fill="#48523F"/>
</svg>
