<svg width="220" height="50" viewBox="0 0 220 50" fill="none" xmlns="http://www.w3.org/2000/svg">
<path d="M7.07375 45.0106C6.88606 45.0106 6.72762 44.8696 6.71056 44.6801C6.49118 42.2888 6.20599 39.8634 5.93055 37.5183C5.84524 36.8014 5.76236 36.0845 5.67948 35.3676C5.06766 30.0479 5.6478 25.5641 7.6222 20.3757C9.30165 15.9624 9.33091 11.9696 7.72457 6.58917C7.66607 6.39718 7.7782 6.19305 7.97076 6.13472C8.16577 6.07883 8.36808 6.18819 8.42658 6.38017C10.0622 11.8554 10.0256 16.118 8.30714 20.6333C6.37662 25.7051 5.80867 30.0867 6.40587 35.2825C6.48874 35.9994 6.57162 36.7163 6.65693 37.4308C6.93237 39.7808 7.22 42.211 7.43938 44.612C7.45888 44.8137 7.31019 44.9887 7.10788 45.0082C7.09569 45.0082 7.08594 45.0082 7.07375 45.0082V45.0106Z" fill="#48523F"/>
<path d="M32.8991 8.62127C32.2214 8.62127 31.5414 8.58239 30.8613 8.49004C29.5377 8.31263 28.2434 7.93595 26.9954 7.57142C25.9277 7.26036 24.8235 6.93957 23.7218 6.75002C21.6523 6.39521 19.2123 6.22753 16.4725 6.25669C15.0783 6.27127 13.684 6.56046 12.3361 6.83751C11.1027 7.09268 9.8254 7.35514 8.52376 7.42075C8.32632 7.4329 8.15081 7.27737 8.14106 7.07566C8.13131 6.87396 8.28488 6.70384 8.48719 6.69412C9.73521 6.63094 10.9832 6.37334 12.1898 6.12546C13.5719 5.84112 15.0027 5.54464 16.4677 5.53006C19.2562 5.5009 21.7376 5.67101 23.8485 6.03311C24.9917 6.22996 26.1154 6.55803 27.2026 6.87396C28.4262 7.2312 29.6913 7.59816 30.9612 7.7707C33.9058 8.16682 36.9015 7.54226 39.7997 6.93714C41.2768 6.62851 42.8052 6.31015 44.3091 6.12789C44.5115 6.10359 44.6918 6.24697 44.7162 6.44624C44.7406 6.64552 44.5968 6.82778 44.3969 6.85209C42.9222 7.02949 41.4109 7.34542 39.9484 7.64919C37.6474 8.13037 35.283 8.6237 32.9015 8.6237L32.8991 8.62127Z" fill="#48523F"/>
<path d="M12.4847 14.5261C12.4579 14.5261 12.4311 14.5237 12.4043 14.5164C10.0203 13.972 8.89177 12.3171 9.1404 9.72648C9.14771 9.65114 9.17696 9.5831 9.22328 9.52964C9.03802 9.4543 8.95027 9.2453 9.02096 9.06061C9.09409 8.87348 9.30615 8.78113 9.49384 8.85404C11.4268 9.6074 13.0258 12.1542 12.8479 14.1956C12.8381 14.3001 12.7845 14.3973 12.6992 14.4581C12.6358 14.5042 12.5603 14.5285 12.4847 14.5285V14.5261ZM9.85947 9.86743C9.68397 11.8918 10.4274 13.1458 12.1239 13.6877C12.0362 12.3001 11.0587 10.6718 9.85947 9.86743Z" fill="#48523F"/>
<path d="M5.64748 15.1094C5.48904 15.1094 5.34035 15.0049 5.29647 14.8445C5.24041 14.65 5.35497 14.4483 5.54997 14.3949C6.56155 14.1105 7.80956 13.3256 8.31901 12.2126C8.60664 11.588 8.6042 10.9586 8.31901 10.3437C8.23369 10.1615 8.3117 9.94519 8.49451 9.86013C8.67733 9.77507 8.89427 9.85284 8.97958 10.0351C9.3574 10.8419 9.35983 11.6998 8.98445 12.5163C8.37751 13.8408 6.9223 14.7667 5.74985 15.0972C5.71573 15.1069 5.68404 15.1118 5.64991 15.1118L5.64748 15.1094Z" fill="#48523F"/>
<path d="M5.50369 14.9683C5.30137 14.9683 5.13806 14.8055 5.13806 14.6062C5.12831 12.0399 5.706 10.2002 8.56523 9.54894C8.76267 9.5052 8.95767 9.62671 9.00398 9.82356C9.04786 10.0204 8.92598 10.2148 8.72854 10.261C6.32514 10.8078 5.85957 12.2659 5.87176 14.6038C5.87176 14.8055 5.71088 14.9683 5.50856 14.9707L5.50369 14.9683Z" fill="#48523F"/>
<path d="M13.0576 20.3246H13.0528C10.2496 20.2906 9.86203 18.4242 9.45252 16.446C9.40133 16.1957 9.34771 15.9381 9.28921 15.6805C9.24533 15.4836 9.36721 15.2892 9.56465 15.2431C9.64265 15.226 9.72065 15.2333 9.7889 15.2625C9.84496 15.2382 9.90834 15.2285 9.97415 15.2358C10.8175 15.3305 11.6975 15.9065 12.3946 16.8154C13.1771 17.8361 13.5695 19.0633 13.4233 20.0135C13.3964 20.1909 13.2429 20.3222 13.0625 20.3222L13.0576 20.3246ZM10.1082 16.0013C10.1302 16.1009 10.1497 16.2006 10.1692 16.3002C10.5543 18.1617 10.8175 19.4279 12.7188 19.581C12.7115 18.8738 12.3751 17.9989 11.8096 17.2601C11.2977 16.5918 10.6883 16.1447 10.1058 16.0013H10.1082Z" fill="#48523F"/>
<path d="M3.83661 19.2316C3.77079 19.2316 3.70498 19.2316 3.64161 19.2267C3.5441 19.2219 3.45148 19.1757 3.3881 19.1004C3.32473 19.025 3.29304 18.9278 3.30035 18.8306C3.48073 16.7261 6.97858 15.1902 8.65804 15.2364C8.86036 15.2412 9.0188 15.4065 9.01636 15.6082C9.01636 15.6301 9.01392 15.6519 9.00905 15.6714C9.04317 15.8463 9.00661 16.0869 8.4996 16.6678C7.70984 17.5742 5.75007 19.2292 3.84148 19.2292L3.83661 19.2316ZM8.10472 16.0019C6.65683 16.2133 4.6093 17.2947 4.12667 18.4855C5.76957 18.3106 7.5319 16.7309 8.10472 16.0019Z" fill="#48523F"/>
<path d="M10.8782 26.3567C10.7978 26.3567 10.7198 26.33 10.654 26.2814C8.32857 24.4903 8.14575 22.7503 8.13844 20.3031C7.99706 20.1937 7.95075 19.9969 8.04094 19.8365C8.13844 19.6615 8.36269 19.5983 8.5382 19.6955C10.3298 20.6968 11.7387 24.0383 11.2317 26.0797C11.2024 26.1987 11.1147 26.296 10.9977 26.3373C10.9587 26.3519 10.9172 26.3567 10.8782 26.3567ZM8.87701 20.879C8.92089 22.8208 9.19877 24.0359 10.6077 25.2947C10.671 23.8439 9.90809 21.9338 8.87701 20.879Z" fill="#48523F"/>
<path d="M4.26295 24.0694C3.17094 24.0694 2.03018 23.7 1.06735 23.3889C0.957662 23.3525 0.869911 23.2674 0.833348 23.1581C0.796785 23.0487 0.813848 22.9272 0.879661 22.8324C1.60361 21.7996 2.7785 21.1094 4.02408 20.9855C5.11609 20.8786 6.13741 21.2212 6.90524 21.9551C6.95886 22.0062 6.99542 22.0718 7.01005 22.1398C7.16605 22.2565 7.20261 22.4776 7.09049 22.6404C6.33485 23.7219 5.32328 24.067 4.26295 24.067V24.0694ZM1.80105 22.8567C3.71938 23.4473 5.28428 23.7024 6.33729 22.4266C5.73522 21.8822 4.94059 21.6295 4.0972 21.7145C3.22944 21.7996 2.40068 22.2176 1.80105 22.8567Z" fill="#48523F"/>
<path d="M8.63614 32.3324C8.56301 32.3324 8.49233 32.3105 8.43139 32.2692C6.14011 30.7236 6.10842 28.9228 6.06698 26.6409C6.06698 26.6263 6.06698 26.6117 6.06698 26.5995C6.05967 26.5315 6.07186 26.461 6.10598 26.3954C6.19861 26.218 6.42042 26.1475 6.59836 26.2399C9.02858 27.5036 9.15777 29.98 8.99933 31.9946C8.98958 32.1234 8.91158 32.2376 8.79214 32.2935C8.74095 32.3178 8.68733 32.3299 8.6337 32.3299L8.63614 32.3324ZM6.81287 27.2265C6.86893 29.054 7.06393 30.2133 8.30951 31.2655C8.36557 29.2898 7.90001 28.0285 6.81287 27.2265Z" fill="#48523F"/>
<path d="M1.32343 31.1755C0.994365 31.1755 0.640923 31.1196 0.250918 30.9908C0.133916 30.9519 0.0437278 30.8547 0.0120399 30.7356C-0.019648 30.6165 0.0120399 30.4877 0.0973534 30.3978C0.231418 30.2544 0.363044 30.1086 0.497108 29.9628C1.906 28.4172 3.50258 26.665 5.98643 27.5764C6.17655 27.6468 6.27406 27.8558 6.20337 28.0454C6.16437 28.1548 6.07662 28.2325 5.97424 28.2665C5.54767 28.913 4.96023 29.314 4.38984 29.7004C4.20215 29.8292 4.00715 29.9604 3.8219 30.1013C3.03945 30.6895 2.28869 31.1804 1.32099 31.1804L1.32343 31.1755ZM1.0553 30.4343C1.85481 30.5315 2.47395 30.1986 3.38314 29.5157C3.58302 29.365 3.7829 29.2289 3.98034 29.0952C4.42641 28.7915 4.85298 28.4998 5.18448 28.1062C3.47821 27.7878 2.29844 29.0734 1.05774 30.4343H1.0553Z" fill="#48523F"/>
<path d="M9.43055 37.4068C9.39399 37.4068 9.35742 37.402 9.31842 37.3898C7.48053 36.8041 5.79375 34.6485 5.70844 32.7749C5.69869 32.5731 5.85469 32.403 6.05701 32.3933C6.2642 32.386 6.42995 32.5391 6.4397 32.7408C6.44458 32.838 6.45433 32.9352 6.46895 33.0349C6.52989 33.03 6.59326 33.0373 6.65177 33.064C7.58046 33.4772 10.5518 34.9961 9.77424 37.1638C9.72062 37.312 9.58168 37.4068 9.43055 37.4068ZM6.71514 33.9025C7.16852 35.0058 8.12647 36.0678 9.16486 36.549C9.24774 35.3363 7.61946 34.3545 6.71514 33.9025Z" fill="#48523F"/>
<path d="M2.62014 36.6432C2.25939 36.6432 1.86695 36.6068 1.44282 36.5339C1.24294 36.4999 1.10888 36.3103 1.143 36.1135C1.17713 35.9142 1.36482 35.7805 1.56469 35.8146C3.50984 36.1475 4.49704 35.7003 5.33312 34.1086C5.36724 34.0429 5.4233 33.987 5.48912 33.953C5.65243 33.8704 5.78406 33.8777 5.88156 33.8825H5.93762C6.13994 33.8898 6.29838 34.0575 6.29594 34.2568C6.29107 34.4585 6.12531 34.6165 5.923 34.614C5.91081 34.614 5.90106 34.614 5.89131 34.614C5.10886 36.009 4.11435 36.6408 2.62014 36.6408V36.6432Z" fill="#48523F"/>
<path d="M1.50371 36.7527C1.45739 36.7527 1.41108 36.743 1.36721 36.726C1.17952 36.6507 1.08933 36.4368 1.16489 36.2521C1.93759 34.3517 3.57317 33.489 5.77182 33.8219C5.9717 33.8511 6.1082 34.0382 6.07895 34.2375C6.0497 34.4368 5.86201 34.5728 5.66213 34.5437C4.36781 34.3493 2.65178 34.534 1.84252 36.5267C1.78402 36.6677 1.64752 36.7552 1.50371 36.7552V36.7527Z" fill="#48523F"/>
<path d="M10.0619 43.7794C10.0083 43.7794 9.95468 43.7673 9.90593 43.7454C7.34652 42.54 6.23989 40.8486 6.42514 38.4282C6.43976 38.2264 6.61527 38.0782 6.81758 38.0928C6.92483 38.1001 7.01746 38.1535 7.0784 38.2337C7.12227 38.2337 7.16615 38.2435 7.21002 38.2605C9.14298 39.0308 10.9346 41.3736 10.4154 43.5048C10.3886 43.6118 10.3179 43.7017 10.2179 43.7479C10.1692 43.7722 10.1131 43.7843 10.0595 43.7843L10.0619 43.7794ZM7.1369 39.0211C7.16615 40.7028 7.99735 41.9155 9.77187 42.8633C9.84499 41.3322 8.56285 39.687 7.1369 39.0211Z" fill="#48523F"/>
<path d="M3.30263 42.082C2.92238 42.082 2.55919 42.031 2.24962 41.9338C2.05705 41.873 1.9498 41.6689 2.01074 41.4769C2.07168 41.2849 2.27643 41.178 2.469 41.2388C3.28801 41.4964 4.64327 41.319 5.3526 40.6409C5.7426 40.2691 5.86448 39.8049 5.71822 39.2606C5.6646 39.0662 5.7816 38.8669 5.9766 38.8134C6.17161 38.7624 6.37148 38.8766 6.42511 39.071C6.64205 39.8681 6.43973 40.6142 5.8596 41.1683C5.19903 41.7977 4.19721 42.082 3.30019 42.082H3.30263Z" fill="#48523F"/>
<path d="M2.43248 42.0218C2.38129 42.0218 2.3301 42.012 2.28135 41.9877C2.09854 41.9051 2.0181 41.6864 2.10098 41.5041C2.78592 40.012 4.23625 38.95 5.88402 38.7313C6.08634 38.7045 6.26915 38.8455 6.29596 39.0448C6.32278 39.2441 6.1814 39.4287 5.98152 39.4555C4.60188 39.6377 3.33924 40.5636 2.76642 41.8079C2.70548 41.9416 2.57142 42.0218 2.43492 42.0218H2.43248Z" fill="#48523F"/>
<path d="M9.21861 49.9968C9.17718 49.9968 9.13818 49.9895 9.09674 49.9749C8.90661 49.9069 8.80667 49.7003 8.87492 49.5107C9.17718 48.6602 9.0748 47.5058 8.61411 46.5726C8.25823 45.8484 7.72197 45.3381 7.10527 45.1364C6.91271 45.0732 6.8079 44.8666 6.87127 44.6771C6.93465 44.4851 7.14184 44.383 7.33196 44.4438C8.13635 44.7062 8.82373 45.3478 9.26736 46.2494C9.81824 47.3673 9.93037 48.7088 9.56231 49.7538C9.50868 49.9044 9.3673 49.9968 9.21861 49.9968Z" fill="#48523F"/>
<path d="M9.07475 49.9975C8.9675 49.9975 8.85781 49.9489 8.78712 49.8589C7.61711 48.3717 6.55435 46.7313 6.71035 44.8333C6.72741 44.6316 6.90291 44.4833 7.10523 44.5004C7.30754 44.5174 7.45623 44.6923 7.43917 44.894C7.29779 46.6243 8.35812 48.1335 9.36238 49.4094C9.4867 49.5673 9.45988 49.7957 9.30144 49.9221C9.23563 49.9756 9.15519 49.9999 9.07719 49.9999L9.07475 49.9975Z" fill="#48523F"/>
<path d="M44.636 6.56762C44.5751 6.56762 44.5166 6.55304 44.4605 6.52144C44.2826 6.42423 44.2192 6.20309 44.3167 6.02568L44.4849 5.71948C45.1406 4.51896 45.9596 3.02682 47.3807 2.45329C48.8091 1.87734 50.3569 2.47274 51.6 2.95148L51.7658 3.01467C51.9535 3.08757 52.0485 3.299 51.9754 3.48613C51.9023 3.67325 51.6927 3.76803 51.5025 3.69512L51.3368 3.63194C50.1546 3.17749 48.8164 2.66229 47.6561 3.12889C46.4763 3.60521 45.7597 4.91508 45.126 6.06943L44.9553 6.37806C44.8895 6.49957 44.7628 6.56519 44.636 6.56519V6.56762Z" fill="#48523F"/>
<path d="M46.0304 6.82259C45.538 6.82259 45.0285 6.73753 44.5093 6.54312C44.3192 6.47264 44.2241 6.26121 44.2948 6.07409C44.3655 5.88696 44.5776 5.78975 44.7653 5.86023C47.6391 6.93924 50.3107 3.93308 51.0614 2.98531C51.1857 2.82734 51.4173 2.80061 51.5757 2.92455C51.7342 3.04849 51.761 3.27936 51.6367 3.43732C50.9371 4.31948 48.7141 6.82259 46.0279 6.82259H46.0304Z" fill="#48523F"/>
<path d="M40.3531 7.2066C40.2678 7.2066 40.18 7.17744 40.1118 7.11426C39.9606 6.9806 39.946 6.74973 40.0801 6.59906C41.9497 4.49207 42.7126 2.91488 41.3939 0.613481C41.294 0.438507 41.3549 0.214929 41.5304 0.115291C41.7059 0.0156527 41.9302 0.0764079 42.0301 0.251382C43.7193 3.19435 42.2641 5.24058 40.6285 7.08266C40.5554 7.16286 40.4555 7.2066 40.3555 7.2066H40.3531Z" fill="#48523F"/>
<path d="M40.2825 7.13612C40.1703 7.13612 40.0607 7.08508 39.9875 6.98787C38.291 4.69377 39.8242 2.46528 41.0576 0.674224C41.177 0.50168 41.294 0.329136 41.4086 0.161452C41.5207 -0.00623124 41.7474 -0.0499747 41.9156 0.0618143C42.0838 0.173603 42.1277 0.399612 42.0156 0.567295C41.901 0.737409 41.7815 0.909953 41.6597 1.08736C40.4433 2.85411 39.188 4.67919 40.5774 6.55773C40.6968 6.72055 40.6627 6.94899 40.4994 7.06807C40.4336 7.11668 40.358 7.13855 40.2825 7.13855V7.13612Z" fill="#48523F"/>
<path d="M35.0685 8.56028C34.9149 8.56028 34.7711 8.46308 34.7199 8.30997C34.6565 8.11799 34.7613 7.91385 34.9539 7.85067C36.8576 7.23097 37.4987 4.57719 37.3451 2.89063C37.3281 2.69136 37.4743 2.51395 37.6766 2.49451C37.8765 2.4775 38.0544 2.62331 38.0739 2.82502C38.2787 5.07295 37.3329 7.84337 35.1806 8.54327C35.144 8.55542 35.105 8.56028 35.066 8.56028H35.0685Z" fill="#48523F"/>
<path d="M34.9247 8.77425C34.9003 8.77425 34.8759 8.77182 34.8516 8.76696C34.6541 8.72564 34.5274 8.53366 34.5664 8.33681C34.6322 8.01116 34.6809 7.71468 34.7297 7.42792C34.8686 6.57249 34.9905 5.83614 35.5024 4.88107C35.8509 4.23221 36.2751 3.75832 36.6846 3.29901C36.9283 3.02683 37.1794 2.74493 37.4134 2.429C37.5328 2.26618 37.762 2.23216 37.9253 2.35124C38.0886 2.47032 38.1227 2.69875 38.0033 2.86158C37.7498 3.20424 37.4865 3.50072 37.2306 3.78505C36.8308 4.23221 36.453 4.65506 36.1459 5.22859C35.6901 6.07673 35.5828 6.72559 35.4488 7.547C35.4 7.84105 35.3513 8.14725 35.2806 8.48505C35.244 8.6576 35.0929 8.77668 34.9222 8.77668L34.9247 8.77425Z" fill="#48523F"/>
<path d="M28.7116 7.84808C28.5361 7.84808 28.3801 7.72171 28.3508 7.54188C28.3191 7.3426 28.4532 7.15548 28.6531 7.12388C30.9346 6.74963 32.2021 5.06794 32.1314 2.50894C32.1266 2.30723 32.285 2.13955 32.4873 2.13469C32.6848 2.12497 32.8578 2.28779 32.8627 2.4895C32.9431 5.40817 31.4148 7.41065 28.7725 7.84322C28.753 7.84565 28.7335 7.84808 28.7116 7.84808Z" fill="#48523F"/>
<path d="M28.2851 7.77835C28.2851 7.77835 28.2704 7.77835 28.2631 7.77835C28.0608 7.7662 27.9072 7.59366 27.9219 7.39195C28.0608 5.17318 29.6525 3.1707 32.073 2.1646C32.2607 2.08683 32.4727 2.17432 32.5507 2.36144C32.6287 2.54857 32.541 2.76 32.3533 2.83776C30.1912 3.73451 28.7726 5.4964 28.6507 7.43569C28.6385 7.63011 28.4776 7.77835 28.2851 7.77835Z" fill="#48523F"/>
<path d="M23.9999 6.56733C23.8073 6.56733 23.6464 6.41666 23.6342 6.22224C23.6245 6.02054 23.778 5.85042 23.9804 5.83827C25.9816 5.73377 27.4587 3.13832 27.6342 1.3254C27.6537 1.12612 27.8341 0.977878 28.034 0.997319C28.2338 1.01676 28.3825 1.19417 28.363 1.39587C28.1656 3.42509 26.5032 6.4361 24.0194 6.5649C24.012 6.5649 24.0072 6.5649 23.9999 6.5649V6.56733Z" fill="#48523F"/>
<path d="M24.0703 6.49434C24.0435 6.49434 24.0142 6.49191 23.985 6.48462C23.7875 6.43844 23.6657 6.2416 23.712 6.04718C23.9947 4.85638 25.9301 1.13818 27.7631 1.13818C27.7705 1.13818 27.7778 1.13818 27.7851 1.13818C27.9874 1.14061 28.1483 1.3083 28.1434 1.51C28.141 1.71171 27.9679 1.86481 27.7705 1.86724C27.7656 1.86724 27.7631 1.86724 27.7583 1.86724C26.5639 1.86724 24.743 4.84909 24.4189 6.21486C24.3799 6.38255 24.2287 6.49677 24.063 6.49677L24.0703 6.49434Z" fill="#48523F"/>
<path d="M17.3574 5.85499C17.1892 5.85499 17.038 5.73834 17.0015 5.56822C16.9576 5.37138 17.0819 5.17696 17.2794 5.13322C19.3781 4.67148 20.9722 3.12831 21.6499 0.897387C21.7084 0.705401 21.9131 0.596042 22.1057 0.654367C22.2982 0.712692 22.4079 0.916828 22.3494 1.10881C21.5914 3.59733 19.7998 5.32277 17.4378 5.84284C17.411 5.8477 17.3842 5.85256 17.3574 5.85256V5.85499Z" fill="#48523F"/>
<path d="M17.6451 5.5706C17.6158 5.5706 17.5841 5.56574 17.5549 5.55845C17.3599 5.50985 17.2405 5.31057 17.2916 5.11616C17.9668 2.46481 18.9906 0.81714 21.9985 0.783117C22.196 0.773397 22.3666 0.94108 22.369 1.14279C22.369 1.34449 22.2081 1.50975 22.0083 1.51218C19.444 1.54134 18.6225 2.86337 18.0034 5.29599C17.962 5.46125 17.8133 5.5706 17.65 5.5706H17.6451Z" fill="#48523F"/>
<path d="M13.9376 6.57221C13.901 6.57221 13.862 6.57221 13.823 6.56978C13.7377 6.56492 13.6548 6.52847 13.5939 6.47014C13.4086 6.29274 13.4501 6.10804 13.4769 6.03757C13.5013 5.97438 13.5744 5.83586 13.7718 5.80184C13.862 5.75809 13.9717 5.75323 14.0716 5.79455C14.0936 5.80427 14.1131 5.81399 14.1326 5.82614C14.4275 5.77268 14.6908 5.58798 14.9296 5.27206C15.7487 4.19791 15.9558 1.99129 15.6536 1.12128C15.5878 0.931724 15.6902 0.722726 15.8803 0.657111C16.0704 0.591496 16.28 0.693564 16.3458 0.883119C16.7042 1.91838 16.5092 4.40204 15.5122 5.71192C15.0832 6.27573 14.5396 6.56978 13.9376 6.56978V6.57221Z" fill="#48523F"/>
<path d="M13.9302 6.56677C13.7961 6.56677 13.667 6.49143 13.6036 6.36506C12.3166 3.78905 14.4689 1.7404 15.8924 0.386778C16.0387 0.248256 16.2702 0.253117 16.4092 0.398928C16.5481 0.54474 16.5432 0.775609 16.397 0.91413C14.6542 2.57152 13.2891 4.10255 14.2593 6.04184C14.3495 6.22168 14.2763 6.4404 14.096 6.53031C14.0448 6.55705 13.9887 6.5692 13.9326 6.5692L13.9302 6.56677Z" fill="#48523F"/>
<path d="M43.8389 12.8906C43.7561 12.8906 43.6756 12.8615 43.6098 12.808L43.4051 12.6452C41.9523 11.4787 39.2905 9.34013 40.6994 7.18211C40.7018 7.12379 40.7189 7.06546 40.7506 7.012C40.8262 6.88563 40.9651 6.82001 41.1016 6.8346C41.1918 6.82487 41.2844 6.84918 41.36 6.90993C41.3941 6.93666 41.4209 6.96583 41.4428 6.99985C43.2198 8.08129 45.0455 9.6998 44.1875 12.6282C44.1534 12.7448 44.0632 12.8372 43.9462 12.8736C43.9096 12.8858 43.8731 12.8906 43.8365 12.8906H43.8389ZM41.2308 7.72648C40.502 9.09954 41.9547 10.5236 43.6196 11.8797C43.9194 10.215 43.1954 8.96588 41.2308 7.72648Z" fill="#48523F"/>
<path d="M37.7036 13.3986C37.6768 13.3986 37.6475 13.3962 37.6207 13.3889C36.1875 13.0535 35.1832 12.395 34.6372 11.4253C34.0912 10.4581 34.0473 9.26001 34.5056 7.86751C34.5689 7.67552 34.7761 7.57345 34.9662 7.63421C35.1588 7.69739 35.2636 7.90396 35.2002 8.09352C34.8078 9.28431 34.8322 10.2856 35.2734 11.0656C35.6585 11.7485 36.3483 12.2467 37.3331 12.5529C37.2941 11.1045 36.9675 9.48359 35.3977 8.65732C35.2197 8.56254 35.1515 8.34382 35.2441 8.16399C35.3392 7.98659 35.5586 7.91854 35.7389 8.01089C37.8572 9.12392 38.0838 11.4083 38.0692 13.0317C38.0692 13.1435 38.018 13.2455 37.9303 13.316C37.8645 13.367 37.7865 13.3938 37.7036 13.3938V13.3986Z" fill="#48523F"/>
<path d="M31.8437 13.5982C31.7706 13.5982 31.695 13.5763 31.6341 13.5326C29.4768 12.0161 28.5043 10.4001 28.28 7.96014C28.1094 7.8848 28.0216 7.68795 28.0826 7.50812C28.1484 7.31856 28.3556 7.2165 28.5481 7.28211C30.932 8.09866 32.1971 10.8934 32.2117 13.2312C32.2117 13.3673 32.1362 13.4937 32.0143 13.5569C31.9607 13.5836 31.9022 13.5982 31.8461 13.5982H31.8437ZM29.0576 8.3271C29.3013 10.0525 30.018 11.3089 31.4269 12.4609C31.2197 10.8521 30.4153 9.1728 29.0576 8.3271Z" fill="#48523F"/>
<path d="M25.8643 12.6888C25.7668 12.6888 25.6718 12.6499 25.6011 12.577C23.6876 10.6086 22.7687 8.94874 23.7266 6.2901C23.7705 6.17102 23.868 6.0884 23.9826 6.05924C23.9923 6.05195 24.0021 6.04465 24.0118 6.03736C24.18 5.92557 24.4067 5.97418 24.5188 6.14186C25.8107 8.10789 26.8296 9.9354 26.2202 12.4093C26.1885 12.5381 26.0886 12.6402 25.9618 12.6742C25.9301 12.684 25.8985 12.6864 25.8668 12.6864L25.8643 12.6888ZM24.2458 7.06777C23.7583 8.86611 24.3262 10.0885 25.6352 11.5466C25.8278 9.88922 25.1769 8.54047 24.2458 7.06777Z" fill="#48523F"/>
<path d="M20.6896 12.1015C20.6116 12.1015 20.5336 12.0747 20.4678 12.0261C18.5251 10.5461 16.5921 8.63114 16.9968 5.65415C17.0236 5.45488 17.2088 5.31392 17.4087 5.34066C17.5087 5.35524 17.594 5.40627 17.65 5.47918C17.7061 5.47918 17.7646 5.49376 17.8182 5.52292C20.48 6.9373 21.5062 8.93006 21.0528 11.7928C21.0333 11.9192 20.948 12.0261 20.8286 12.0747C20.7847 12.0917 20.7384 12.1015 20.6921 12.1015H20.6896ZM17.6768 6.27871C17.6086 8.3541 18.881 9.81222 20.4044 11.0468C20.5678 8.91548 19.7073 7.4209 17.6768 6.27871Z" fill="#48523F"/>
<path d="M16.029 10.9102C15.9437 10.9102 15.8584 10.8811 15.7926 10.8228C14.1497 9.42539 13.455 8.22973 13.143 6.25884C13.1113 6.05957 13.2478 5.87244 13.4477 5.84085C13.5891 5.81898 13.7231 5.87973 13.8011 5.98909C13.8279 5.99638 13.8548 6.0061 13.8816 6.01825C15.5854 6.86882 17.1357 8.53594 16.3727 10.6672C16.3337 10.779 16.2387 10.8665 16.1217 10.8981C16.09 10.9054 16.0583 10.9102 16.0266 10.9102H16.029ZM14.0205 6.93201C14.3154 8.10579 14.8346 8.94907 15.8145 9.87012C15.9657 8.62342 15.0881 7.59302 14.0205 6.93201Z" fill="#48523F"/>
<path d="M212.926 45.0106C213.114 45.0106 213.272 44.8696 213.289 44.6801C213.509 42.2888 213.794 39.8634 214.069 37.5183C214.155 36.8014 214.238 36.0845 214.321 35.3676C214.932 30.0479 214.352 25.5641 212.378 20.3757C210.698 15.9624 210.669 11.9696 212.275 6.58917C212.334 6.39718 212.222 6.19305 212.029 6.13472C211.834 6.07883 211.632 6.18819 211.573 6.38017C209.938 11.8554 209.974 16.118 211.693 20.6333C213.623 25.7051 214.191 30.0867 213.594 35.2825C213.511 35.9994 213.428 36.7163 213.343 37.4308C213.068 39.7808 212.78 42.211 212.561 44.612C212.541 44.8137 212.69 44.9887 212.892 45.0082C212.904 45.0082 212.914 45.0082 212.926 45.0082V45.0106Z" fill="#48523F"/>
<path d="M187.101 8.62127C187.779 8.62127 188.459 8.58239 189.139 8.49004C190.462 8.31263 191.757 7.93595 193.005 7.57142C194.072 7.26036 195.176 6.93957 196.278 6.75002C198.348 6.39521 200.788 6.22753 203.527 6.25669C204.922 6.27127 206.316 6.56046 207.664 6.83751C208.897 7.09268 210.175 7.35514 211.476 7.42075C211.674 7.4329 211.849 7.27737 211.859 7.07566C211.869 6.87396 211.715 6.70384 211.513 6.69412C210.265 6.63094 209.017 6.37334 207.81 6.12546C206.428 5.84112 204.997 5.54464 203.532 5.53006C200.744 5.5009 198.262 5.67101 196.151 6.03311C195.008 6.22996 193.885 6.55803 192.797 6.87396C191.574 7.2312 190.309 7.59816 189.039 7.7707C186.094 8.16682 183.099 7.54226 180.2 6.93714C178.723 6.62851 177.195 6.31015 175.691 6.12789C175.489 6.10359 175.308 6.24697 175.284 6.44624C175.259 6.64552 175.403 6.82778 175.603 6.85209C177.078 7.02949 178.589 7.34542 180.052 7.64919C182.353 8.13037 184.717 8.6237 187.099 8.6237L187.101 8.62127Z" fill="#48523F"/>
<path d="M207.515 14.5261C207.542 14.5261 207.569 14.5237 207.596 14.5164C209.98 13.972 211.108 12.3171 210.86 9.72648C210.852 9.65114 210.823 9.5831 210.777 9.52964C210.962 9.4543 211.05 9.2453 210.979 9.06061C210.906 8.87348 210.694 8.78113 210.506 8.85404C208.573 9.6074 206.974 12.1542 207.152 14.1956C207.162 14.3001 207.215 14.3973 207.301 14.4581C207.364 14.5042 207.44 14.5285 207.515 14.5285V14.5261ZM210.141 9.86743C210.316 11.8918 209.573 13.1458 207.876 13.6877C207.964 12.3001 208.941 10.6718 210.141 9.86743Z" fill="#48523F"/>
<path d="M214.353 15.1094C214.511 15.1094 214.66 15.0049 214.704 14.8445C214.76 14.65 214.645 14.4483 214.45 14.3949C213.438 14.1105 212.19 13.3256 211.681 12.2126C211.393 11.588 211.396 10.9586 211.681 10.3437C211.766 10.1615 211.688 9.94519 211.505 9.86013C211.323 9.77507 211.106 9.85284 211.02 10.0351C210.643 10.8419 210.64 11.6998 211.016 12.5163C211.622 13.8408 213.078 14.7667 214.25 15.0972C214.284 15.1069 214.316 15.1118 214.35 15.1118L214.353 15.1094Z" fill="#48523F"/>
<path d="M214.496 14.9683C214.699 14.9683 214.862 14.8055 214.862 14.6062C214.872 12.0399 214.294 10.2002 211.435 9.54894C211.237 9.5052 211.042 9.62671 210.996 9.82356C210.952 10.0204 211.074 10.2148 211.271 10.261C213.675 10.8078 214.14 12.2659 214.128 14.6038C214.128 14.8055 214.289 14.9683 214.491 14.9707L214.496 14.9683Z" fill="#48523F"/>
<path d="M206.942 20.3246H206.947C209.75 20.2906 210.138 18.4242 210.547 16.446C210.599 16.1957 210.652 15.9381 210.711 15.6805C210.755 15.4836 210.633 15.2892 210.435 15.2431C210.357 15.226 210.279 15.2333 210.211 15.2625C210.155 15.2382 210.092 15.2285 210.026 15.2358C209.182 15.3305 208.303 15.9065 207.605 16.8154C206.823 17.8361 206.43 19.0633 206.577 20.0135C206.604 20.1909 206.757 20.3222 206.937 20.3222L206.942 20.3246ZM209.892 16.0013C209.87 16.1009 209.85 16.2006 209.831 16.3002C209.446 18.1617 209.182 19.4279 207.281 19.581C207.289 18.8738 207.625 17.9989 208.19 17.2601C208.702 16.5918 209.312 16.1447 209.894 16.0013H209.892Z" fill="#48523F"/>
<path d="M216.163 19.2316C216.229 19.2316 216.295 19.2316 216.358 19.2267C216.456 19.2219 216.549 19.1757 216.612 19.1004C216.675 19.025 216.707 18.9278 216.7 18.8306C216.519 16.7261 213.021 15.1902 211.342 15.2364C211.14 15.2412 210.981 15.4065 210.984 15.6082C210.984 15.6301 210.986 15.6519 210.991 15.6714C210.957 15.8463 210.993 16.0869 211.5 16.6678C212.29 17.5742 214.25 19.2292 216.159 19.2292L216.163 19.2316ZM211.895 16.0019C213.343 16.2133 215.391 17.2947 215.873 18.4855C214.23 18.3106 212.468 16.7309 211.895 16.0019Z" fill="#48523F"/>
<path d="M209.122 26.3567C209.202 26.3567 209.28 26.33 209.346 26.2814C211.671 24.4903 211.854 22.7503 211.862 20.3031C212.003 20.1937 212.049 19.9969 211.959 19.8365C211.862 19.6615 211.637 19.5983 211.462 19.6955C209.67 20.6968 208.261 24.0383 208.768 26.0797C208.798 26.1987 208.885 26.296 209.002 26.3373C209.041 26.3519 209.083 26.3567 209.122 26.3567ZM211.123 20.879C211.079 22.8208 210.801 24.0359 209.392 25.2947C209.329 23.8439 210.092 21.9338 211.123 20.879Z" fill="#48523F"/>
<path d="M215.737 24.0694C216.829 24.0694 217.97 23.7 218.933 23.3889C219.042 23.3525 219.13 23.2674 219.167 23.1581C219.203 23.0487 219.186 22.9272 219.12 22.8324C218.396 21.7996 217.222 21.1094 215.976 20.9855C214.884 20.8786 213.863 21.2212 213.095 21.9551C213.041 22.0062 213.005 22.0718 212.99 22.1398C212.834 22.2565 212.797 22.4776 212.91 22.6404C213.665 23.7219 214.677 24.067 215.737 24.067V24.0694ZM218.199 22.8567C216.281 23.4473 214.716 23.7024 213.663 22.4266C214.265 21.8822 215.059 21.6295 215.903 21.7145C216.771 21.7996 217.599 22.2176 218.199 22.8567Z" fill="#48523F"/>
<path d="M211.364 32.3324C211.437 32.3324 211.508 32.3105 211.569 32.2692C213.86 30.7236 213.892 28.9228 213.933 26.6409C213.933 26.6263 213.933 26.6117 213.933 26.5995C213.94 26.5315 213.928 26.461 213.894 26.3954C213.801 26.218 213.58 26.1475 213.402 26.2399C210.971 27.5036 210.842 29.98 211.001 31.9946C211.01 32.1234 211.088 32.2376 211.208 32.2935C211.259 32.3178 211.313 32.3299 211.366 32.3299L211.364 32.3324ZM213.187 27.2265C213.131 29.054 212.936 30.2133 211.69 31.2655C211.634 29.2898 212.1 28.0285 213.187 27.2265Z" fill="#48523F"/>
<path d="M218.677 31.1755C219.006 31.1755 219.359 31.1196 219.749 30.9908C219.866 30.9519 219.956 30.8547 219.988 30.7356C220.02 30.6165 219.988 30.4877 219.903 30.3978C219.769 30.2544 219.637 30.1086 219.503 29.9628C218.094 28.4172 216.497 26.665 214.014 27.5764C213.823 27.6468 213.726 27.8558 213.797 28.0454C213.836 28.1548 213.923 28.2325 214.026 28.2665C214.452 28.913 215.04 29.314 215.61 29.7004C215.798 29.8292 215.993 29.9604 216.178 30.1013C216.961 30.6895 217.711 31.1804 218.679 31.1804L218.677 31.1755ZM218.945 30.4343C218.145 30.5315 217.526 30.1986 216.617 29.5157C216.417 29.365 216.217 29.2289 216.02 29.0952C215.574 28.7915 215.147 28.4998 214.816 28.1062C216.522 27.7878 217.702 29.0734 218.942 30.4343H218.945Z" fill="#48523F"/>
<path d="M210.569 37.4068C210.606 37.4068 210.643 37.402 210.682 37.3898C212.519 36.8041 214.206 34.6485 214.292 32.7749C214.301 32.5731 214.145 32.403 213.943 32.3933C213.736 32.386 213.57 32.5391 213.56 32.7408C213.555 32.838 213.546 32.9352 213.531 33.0349C213.47 33.03 213.407 33.0373 213.348 33.064C212.42 33.4772 209.448 34.9961 210.226 37.1638C210.279 37.312 210.418 37.4068 210.569 37.4068ZM213.285 33.9025C212.831 35.0058 211.874 36.0678 210.835 36.549C210.752 35.3363 212.381 34.3545 213.285 33.9025Z" fill="#48523F"/>
<path d="M217.38 36.6432C217.741 36.6432 218.133 36.6068 218.557 36.5339C218.757 36.4999 218.891 36.3103 218.857 36.1135C218.823 35.9142 218.635 35.7805 218.435 35.8146C216.49 36.1475 215.503 35.7003 214.667 34.1086C214.633 34.0429 214.577 33.987 214.511 33.953C214.348 33.8704 214.216 33.8777 214.118 33.8825H214.062C213.86 33.8898 213.702 34.0575 213.704 34.2568C213.709 34.4585 213.875 34.6165 214.077 34.614C214.089 34.614 214.099 34.614 214.109 34.614C214.891 36.009 215.886 36.6408 217.38 36.6408V36.6432Z" fill="#48523F"/>
<path d="M218.496 36.7527C218.543 36.7527 218.589 36.743 218.633 36.726C218.82 36.6507 218.911 36.4368 218.835 36.2521C218.062 34.3517 216.427 33.489 214.228 33.8219C214.028 33.8511 213.892 34.0382 213.921 34.2375C213.95 34.4368 214.138 34.5728 214.338 34.5437C215.632 34.3493 217.348 34.534 218.157 36.5267C218.216 36.6677 218.352 36.7552 218.496 36.7552V36.7527Z" fill="#48523F"/>
<path d="M209.938 43.7794C209.992 43.7794 210.045 43.7673 210.094 43.7454C212.653 42.54 213.76 40.8486 213.575 38.4282C213.56 38.2264 213.385 38.0782 213.182 38.0928C213.075 38.1001 212.983 38.1535 212.922 38.2337C212.878 38.2337 212.834 38.2435 212.79 38.2605C210.857 39.0308 209.065 41.3736 209.585 43.5048C209.611 43.6118 209.682 43.7017 209.782 43.7479C209.831 43.7722 209.887 43.7843 209.941 43.7843L209.938 43.7794ZM212.863 39.0211C212.834 40.7028 212.003 41.9155 210.228 42.8633C210.155 41.3322 211.437 39.687 212.863 39.0211Z" fill="#48523F"/>
<path d="M216.697 42.082C217.078 42.082 217.441 42.031 217.75 41.9338C217.943 41.873 218.05 41.6689 217.989 41.4769C217.928 41.2849 217.724 41.178 217.531 41.2388C216.712 41.4964 215.357 41.319 214.647 40.6409C214.257 40.2691 214.136 39.8049 214.282 39.2606C214.335 39.0662 214.218 38.8669 214.023 38.8134C213.828 38.7624 213.629 38.8766 213.575 39.071C213.358 39.8681 213.56 40.6142 214.14 41.1683C214.801 41.7977 215.803 42.082 216.7 42.082H216.697Z" fill="#48523F"/>
<path d="M217.568 42.0218C217.619 42.0218 217.67 42.012 217.719 41.9877C217.901 41.9051 217.982 41.6864 217.899 41.5041C217.214 40.012 215.764 38.95 214.116 38.7313C213.914 38.7045 213.731 38.8455 213.704 39.0448C213.677 39.2441 213.819 39.4287 214.018 39.4555C215.398 39.6377 216.661 40.5636 217.234 41.8079C217.295 41.9416 217.429 42.0218 217.565 42.0218H217.568Z" fill="#48523F"/>
<path d="M210.781 49.9968C210.823 49.9968 210.862 49.9895 210.903 49.9749C211.093 49.9069 211.193 49.7003 211.125 49.5107C210.823 48.6602 210.925 47.5058 211.386 46.5726C211.742 45.8484 212.278 45.3381 212.895 45.1364C213.087 45.0732 213.192 44.8666 213.129 44.6771C213.065 44.4851 212.858 44.383 212.668 44.4438C211.864 44.7062 211.176 45.3478 210.733 46.2494C210.182 47.3673 210.07 48.7088 210.438 49.7538C210.491 49.9044 210.633 49.9968 210.781 49.9968Z" fill="#48523F"/>
<path d="M210.925 49.9975C211.032 49.9975 211.142 49.9489 211.213 49.8589C212.383 48.3717 213.446 46.7313 213.29 44.8333C213.273 44.6316 213.097 44.4833 212.895 44.5004C212.692 44.5174 212.544 44.6923 212.561 44.894C212.702 46.6243 211.642 48.1335 210.638 49.4094C210.513 49.5673 210.54 49.7957 210.699 49.9221C210.764 49.9756 210.845 49.9999 210.923 49.9999L210.925 49.9975Z" fill="#48523F"/>
<path d="M175.364 6.56762C175.425 6.56762 175.483 6.55304 175.539 6.52144C175.717 6.42423 175.781 6.20309 175.683 6.02568L175.515 5.71948C174.859 4.51896 174.04 3.02682 172.619 2.45329C171.191 1.87734 169.643 2.47274 168.4 2.95148L168.234 3.01467C168.047 3.08757 167.951 3.299 168.025 3.48613C168.098 3.67325 168.307 3.76803 168.497 3.69512L168.663 3.63194C169.845 3.17749 171.184 2.66229 172.344 3.12889C173.524 3.60521 174.24 4.91508 174.874 6.06943L175.045 6.37806C175.11 6.49957 175.237 6.56519 175.364 6.56519V6.56762Z" fill="#48523F"/>
<path d="M173.97 6.82259C174.462 6.82259 174.971 6.73753 175.491 6.54312C175.681 6.47264 175.776 6.26121 175.705 6.07409C175.634 5.88696 175.422 5.78975 175.235 5.86023C172.361 6.93924 169.689 3.93308 168.939 2.98531C168.814 2.82734 168.583 2.80061 168.424 2.92455C168.266 3.04849 168.239 3.27936 168.363 3.43732C169.063 4.31948 171.286 6.82259 173.972 6.82259H173.97Z" fill="#48523F"/>
<path d="M179.647 7.2066C179.732 7.2066 179.82 7.17744 179.888 7.11426C180.039 6.9806 180.054 6.74973 179.92 6.59906C178.05 4.49207 177.287 2.91488 178.606 0.613481C178.706 0.438507 178.645 0.214929 178.47 0.115291C178.294 0.0156527 178.07 0.0764079 177.97 0.251382C176.281 3.19435 177.736 5.24058 179.371 7.08266C179.445 7.16286 179.545 7.2066 179.644 7.2066H179.647Z" fill="#48523F"/>
<path d="M179.718 7.13612C179.83 7.13612 179.939 7.08508 180.012 6.98787C181.709 4.69377 180.176 2.46528 178.942 0.674224C178.823 0.50168 178.706 0.329136 178.591 0.161452C178.479 -0.00623124 178.253 -0.0499747 178.084 0.0618143C177.916 0.173603 177.872 0.399612 177.984 0.567295C178.099 0.737409 178.218 0.909953 178.34 1.08736C179.557 2.85411 180.812 4.67919 179.423 6.55773C179.303 6.72055 179.337 6.94899 179.501 7.06807C179.566 7.11668 179.642 7.13855 179.718 7.13855V7.13612Z" fill="#48523F"/>
<path d="M184.932 8.56028C185.085 8.56028 185.229 8.46308 185.28 8.30997C185.343 8.11799 185.239 7.91385 185.046 7.85067C183.142 7.23097 182.501 4.57719 182.655 2.89063C182.672 2.69136 182.526 2.51395 182.323 2.49451C182.123 2.4775 181.946 2.62331 181.926 2.82502C181.721 5.07295 182.667 7.84337 184.819 8.54327C184.856 8.55542 184.895 8.56028 184.934 8.56028H184.932Z" fill="#48523F"/>
<path d="M185.075 8.77425C185.1 8.77425 185.124 8.77182 185.148 8.76696C185.346 8.72564 185.473 8.53366 185.434 8.33681C185.368 8.01116 185.319 7.71468 185.27 7.42792C185.131 6.57249 185.009 5.83614 184.498 4.88107C184.149 4.23221 183.725 3.75832 183.315 3.29901C183.072 3.02683 182.821 2.74493 182.587 2.429C182.467 2.26618 182.238 2.23216 182.075 2.35124C181.911 2.47032 181.877 2.69875 181.997 2.86158C182.25 3.20424 182.513 3.50072 182.769 3.78505C183.169 4.23221 183.547 4.65506 183.854 5.22859C184.31 6.07673 184.417 6.72559 184.551 7.547C184.6 7.84105 184.649 8.14725 184.719 8.48505C184.756 8.6576 184.907 8.77668 185.078 8.77668L185.075 8.77425Z" fill="#48523F"/>
<path d="M191.288 7.84808C191.464 7.84808 191.62 7.72171 191.649 7.54188C191.681 7.3426 191.547 7.15548 191.347 7.12388C189.065 6.74963 187.798 5.06794 187.869 2.50894C187.873 2.30723 187.715 2.13955 187.513 2.13469C187.315 2.12497 187.142 2.28779 187.137 2.4895C187.057 5.40817 188.585 7.41065 191.227 7.84322C191.247 7.84565 191.266 7.84808 191.288 7.84808Z" fill="#48523F"/>
<path d="M191.715 7.77835C191.715 7.77835 191.73 7.77835 191.737 7.77835C191.939 7.7662 192.093 7.59366 192.078 7.39195C191.939 5.17318 190.347 3.1707 187.927 2.1646C187.739 2.08683 187.527 2.17432 187.449 2.36144C187.371 2.54857 187.459 2.76 187.647 2.83776C189.809 3.73451 191.227 5.4964 191.349 7.43569C191.362 7.63011 191.522 7.77835 191.715 7.77835Z" fill="#48523F"/>
<path d="M196 6.56733C196.193 6.56733 196.354 6.41666 196.366 6.22224C196.376 6.02054 196.222 5.85042 196.02 5.83827C194.018 5.73377 192.541 3.13832 192.366 1.3254C192.346 1.12612 192.166 0.977878 191.966 0.997319C191.766 1.01676 191.617 1.19417 191.637 1.39587C191.834 3.42509 193.497 6.4361 195.981 6.5649C195.988 6.5649 195.993 6.5649 196 6.5649V6.56733Z" fill="#48523F"/>
<path d="M195.93 6.49434C195.957 6.49434 195.986 6.49191 196.015 6.48462C196.212 6.43844 196.334 6.2416 196.288 6.04718C196.005 4.85638 194.07 1.13818 192.237 1.13818C192.23 1.13818 192.222 1.13818 192.215 1.13818C192.013 1.14061 191.852 1.3083 191.857 1.51C191.859 1.71171 192.032 1.86481 192.23 1.86724C192.234 1.86724 192.237 1.86724 192.242 1.86724C193.436 1.86724 195.257 4.84909 195.581 6.21486C195.62 6.38255 195.771 6.49677 195.937 6.49677L195.93 6.49434Z" fill="#48523F"/>
<path d="M202.643 5.85499C202.811 5.85499 202.962 5.73834 202.999 5.56822C203.042 5.37138 202.918 5.17696 202.721 5.13322C200.622 4.67148 199.028 3.12831 198.35 0.897387C198.292 0.705401 198.087 0.596042 197.894 0.654367C197.702 0.712692 197.592 0.916828 197.651 1.10881C198.409 3.59733 200.2 5.32277 202.562 5.84284C202.589 5.8477 202.616 5.85256 202.643 5.85256V5.85499Z" fill="#48523F"/>
<path d="M202.355 5.5706C202.384 5.5706 202.416 5.56574 202.445 5.55845C202.64 5.50985 202.76 5.31057 202.708 5.11616C202.033 2.46481 201.009 0.81714 198.001 0.783117C197.804 0.773397 197.633 0.94108 197.631 1.14279C197.631 1.34449 197.792 1.50975 197.992 1.51218C200.556 1.54134 201.377 2.86337 201.997 5.29599C202.038 5.46125 202.187 5.5706 202.35 5.5706H202.355Z" fill="#48523F"/>
<path d="M206.062 6.57221C206.099 6.57221 206.138 6.57221 206.177 6.56978C206.262 6.56492 206.345 6.52847 206.406 6.47014C206.591 6.29274 206.55 6.10804 206.523 6.03757C206.499 5.97438 206.426 5.83586 206.228 5.80184C206.138 5.75809 206.028 5.75323 205.928 5.79455C205.906 5.80427 205.887 5.81399 205.867 5.82614C205.572 5.77268 205.309 5.58798 205.07 5.27206C204.251 4.19791 204.044 1.99129 204.346 1.12128C204.412 0.931724 204.31 0.722726 204.12 0.657111C203.93 0.591496 203.72 0.693564 203.654 0.883119C203.296 1.91838 203.491 4.40204 204.488 5.71192C204.917 6.27573 205.46 6.56978 206.062 6.56978V6.57221Z" fill="#48523F"/>
<path d="M206.07 6.56677C206.204 6.56677 206.333 6.49143 206.396 6.36506C207.683 3.78905 205.531 1.7404 204.108 0.386778C203.961 0.248256 203.73 0.253117 203.591 0.398928C203.452 0.54474 203.457 0.775609 203.603 0.91413C205.346 2.57152 206.711 4.10255 205.741 6.04184C205.651 6.22168 205.724 6.4404 205.904 6.53031C205.955 6.55705 206.011 6.5692 206.067 6.5692L206.07 6.56677Z" fill="#48523F"/>
<path d="M176.161 12.8906C176.244 12.8906 176.324 12.8615 176.39 12.808L176.595 12.6452C178.048 11.4787 180.709 9.34013 179.301 7.18211C179.298 7.12379 179.281 7.06546 179.249 7.012C179.174 6.88563 179.035 6.82001 178.898 6.8346C178.808 6.82487 178.716 6.84918 178.64 6.90993C178.606 6.93666 178.579 6.96583 178.557 6.99985C176.78 8.08129 174.954 9.6998 175.812 12.6282C175.847 12.7448 175.937 12.8372 176.054 12.8736C176.09 12.8858 176.127 12.8906 176.163 12.8906H176.161ZM178.769 7.72648C179.498 9.09954 178.045 10.5236 176.38 11.8797C176.081 10.215 176.805 8.96588 178.769 7.72648Z" fill="#48523F"/>
<path d="M182.296 13.3986C182.323 13.3986 182.352 13.3962 182.379 13.3889C183.813 13.0535 184.817 12.395 185.363 11.4253C185.909 10.4581 185.953 9.26001 185.494 7.86751C185.431 7.67552 185.224 7.57345 185.034 7.63421C184.841 7.69739 184.736 7.90396 184.8 8.09352C185.192 9.28431 185.168 10.2856 184.727 11.0656C184.341 11.7485 183.652 12.2467 182.667 12.5529C182.706 11.1045 183.033 9.48359 184.602 8.65732C184.78 8.56254 184.848 8.34382 184.756 8.16399C184.661 7.98659 184.441 7.91854 184.261 8.01089C182.143 9.12392 181.916 11.4083 181.931 13.0317C181.931 13.1435 181.982 13.2455 182.07 13.316C182.136 13.367 182.214 13.3938 182.296 13.3938V13.3986Z" fill="#48523F"/>
<path d="M188.156 13.5982C188.229 13.5982 188.305 13.5763 188.366 13.5326C190.523 12.0161 191.496 10.4001 191.72 7.96014C191.891 7.8848 191.978 7.68795 191.917 7.50812C191.852 7.31856 191.644 7.2165 191.452 7.28211C189.068 8.09866 187.803 10.8934 187.788 13.2312C187.788 13.3673 187.864 13.4937 187.986 13.5569C188.039 13.5836 188.098 13.5982 188.154 13.5982H188.156ZM190.942 8.3271C190.699 10.0525 189.982 11.3089 188.573 12.4609C188.78 10.8521 189.585 9.1728 190.942 8.3271Z" fill="#48523F"/>
<path d="M194.136 12.6888C194.233 12.6888 194.328 12.6499 194.399 12.577C196.312 10.6086 197.231 8.94874 196.273 6.2901C196.23 6.17102 196.132 6.0884 196.017 6.05924C196.008 6.05195 195.998 6.04465 195.988 6.03736C195.82 5.92557 195.593 5.97418 195.481 6.14186C194.189 8.10789 193.17 9.9354 193.78 12.4093C193.811 12.5381 193.911 12.6402 194.038 12.6742C194.07 12.684 194.102 12.6864 194.133 12.6864L194.136 12.6888ZM195.754 7.06777C196.242 8.86611 195.674 10.0885 194.365 11.5466C194.172 9.88922 194.823 8.54047 195.754 7.06777Z" fill="#48523F"/>
<path d="M199.31 12.1015C199.388 12.1015 199.466 12.0747 199.532 12.0261C201.475 10.5461 203.408 8.63114 203.003 5.65415C202.976 5.45488 202.791 5.31392 202.591 5.34066C202.491 5.35524 202.406 5.40627 202.35 5.47918C202.294 5.47918 202.235 5.49376 202.182 5.52292C199.52 6.9373 198.494 8.93006 198.947 11.7928C198.967 11.9192 199.052 12.0261 199.171 12.0747C199.215 12.0917 199.262 12.1015 199.308 12.1015H199.31ZM202.323 6.27871C202.391 8.3541 201.119 9.81222 199.596 11.0468C199.432 8.91548 200.293 7.4209 202.323 6.27871Z" fill="#48523F"/>
<path d="M203.971 10.9102C204.056 10.9102 204.142 10.8811 204.207 10.8228C205.85 9.42539 206.545 8.22973 206.857 6.25884C206.889 6.05957 206.752 5.87244 206.552 5.84085C206.411 5.81898 206.277 5.87973 206.199 5.98909C206.172 5.99638 206.145 6.0061 206.118 6.01825C204.415 6.86882 202.864 8.53594 203.627 10.6672C203.666 10.779 203.761 10.8665 203.878 10.8981C203.91 10.9054 203.942 10.9102 203.973 10.9102H203.971ZM205.979 6.93201C205.685 8.10579 205.165 8.94907 204.185 9.87012C204.034 8.62342 204.912 7.59302 205.979 6.93201Z" fill="#48523F"/>
</svg>
