<svg width="17" height="17" viewBox="0 0 17 17" fill="none" xmlns="http://www.w3.org/2000/svg">
<path d="M14.1313 15.2292C12.6556 15.2292 11.1976 14.9075 9.75729 14.2641C8.31701 13.6207 7.0066 12.7087 5.82604 11.5281C4.64549 10.3476 3.73351 9.03717 3.0901 7.5969C2.4467 6.15662 2.125 4.69863 2.125 3.22294C2.125 3.01044 2.19583 2.83335 2.3375 2.69169C2.47917 2.55002 2.65625 2.47919 2.86875 2.47919H5.7375C5.90278 2.47919 6.05035 2.53526 6.18021 2.64742C6.31007 2.75957 6.38681 2.89238 6.41042 3.04585L6.87083 5.52502C6.89444 5.71391 6.88854 5.87328 6.85313 6.00315C6.81771 6.13301 6.75278 6.24516 6.65833 6.3396L4.94062 8.07502C5.17674 8.51183 5.45712 8.93387 5.78177 9.34117C6.10642 9.74846 6.46354 10.141 6.85313 10.5188C7.2191 10.8847 7.60278 11.2242 8.00417 11.537C8.40556 11.8498 8.83056 12.1361 9.27917 12.3959L10.9437 10.7313C11.05 10.625 11.1887 10.5453 11.3599 10.4922C11.5311 10.4391 11.6993 10.4243 11.8646 10.4479L14.3083 10.9438C14.4736 10.991 14.6094 11.0766 14.7156 11.2005C14.8219 11.3245 14.875 11.4632 14.875 11.6167V14.4854C14.875 14.6979 14.8042 14.875 14.6625 15.0167C14.5208 15.1584 14.3438 15.2292 14.1313 15.2292Z" fill="#ffffff"/>
</svg>
