<svg width="34" height="16" viewBox="0 0 34 16" fill="none" xmlns="http://www.w3.org/2000/svg">
<path d="M19.8175 15.3645C19.6734 15.3645 19.5142 15.3445 19.34 15.2987C18.3008 15.0324 17.9434 13.9388 17.6851 13.1401C17.61 12.914 17.5409 12.6993 17.4658 12.5332C17.3667 12.3099 17.2165 12.0809 17.0603 11.8404C16.8111 11.454 16.5497 11.056 16.4386 10.6009C16.2764 9.93956 16.3365 9.42426 16.6188 9.02347C17.0784 8.37362 17.9734 8.23907 18.8414 8.11025C19.2739 8.0444 19.7184 7.97856 20.0668 7.84973C20.4213 7.114 21.0099 6.27808 21.9951 6.46702C22.8451 6.6302 23.0493 7.38883 23.1995 7.94421C23.2626 8.17609 23.3256 8.4137 23.4157 8.53966C23.5629 8.74578 23.7912 8.88033 24.0525 9.04064C24.3769 9.23531 24.7463 9.45861 25.0046 9.85653C25.362 10.4033 25.4551 11.0818 25.2689 11.7631C25.0707 12.4846 24.5931 13.0915 23.9564 13.4293C23.5118 13.664 23.0613 13.7012 22.6619 13.7299C22.3014 13.7585 21.9921 13.7814 21.7308 13.9417C21.5416 14.0562 21.3884 14.2566 21.2262 14.4713C20.9288 14.8578 20.5414 15.3645 19.8085 15.3645H19.8175ZM19.7665 8.8288C19.5082 8.88319 19.2439 8.92327 18.9826 8.96049C18.3068 9.06068 17.607 9.16661 17.3667 9.50442C17.2315 9.69336 17.2165 9.99681 17.3156 10.409C17.3937 10.7268 17.604 11.0503 17.8262 11.391C17.9944 11.6486 18.1686 11.9177 18.2948 12.2011C18.3849 12.4073 18.463 12.642 18.5441 12.8911C18.7633 13.5667 19.0126 14.331 19.5713 14.4742C20.0068 14.5858 20.1509 14.4312 20.5054 13.9675C20.7006 13.7127 20.9228 13.4235 21.2532 13.2203C21.7037 12.9455 22.1783 12.9111 22.5958 12.8768C22.9472 12.851 23.2505 12.8252 23.5269 12.6821C23.9444 12.4616 24.2717 12.038 24.4039 11.5513C24.527 11.099 24.47 10.661 24.2447 10.3146C24.0945 10.0827 23.8543 9.93956 23.5779 9.77065C23.2746 9.58744 22.9322 9.38132 22.6799 9.0292C22.4997 8.77728 22.4156 8.46523 22.3345 8.16178C22.1873 7.62358 22.0912 7.36307 21.8239 7.31154C21.5326 7.25429 21.2742 7.52911 21.067 7.87551C21.1511 8.05872 21.091 8.27915 20.9108 8.39652C20.8628 8.42801 20.8147 8.45664 20.7667 8.48527C20.7186 8.59692 20.6765 8.69998 20.6435 8.78873L20.6195 8.84884C20.5324 9.06928 20.2711 9.18092 20.0368 9.0979C19.9047 9.04924 19.8085 8.94617 19.7665 8.82594V8.8288Z" fill="#48523F"/>
<path d="M21.0131 11.9437C20.8058 11.9437 20.5926 11.8693 20.4214 11.729C20.3583 11.6775 20.3042 11.6231 20.2592 11.5601C20.115 11.5057 20.0099 11.374 19.9889 11.2108C19.9588 10.9847 19.9949 10.7786 20.088 10.6125C20.1511 10.4035 20.2922 10.226 20.5115 10.0829C20.7157 9.94835 20.998 9.99702 21.1392 10.1917C21.1542 10.2117 21.1632 10.2289 21.1752 10.2489C21.2173 10.2632 21.2563 10.2804 21.2954 10.3033C21.6198 10.4722 21.806 10.7957 21.791 11.1679C21.7789 11.4971 21.6047 11.7605 21.3254 11.8778C21.2263 11.9179 21.1182 11.9408 21.01 11.9408L21.0131 11.9437Z" fill="#48523F"/>
<path d="M12.498 8.69419C12.1556 8.69419 11.8583 8.5167 11.6691 8.19893C11.0624 7.16261 11.597 4.64338 12.7353 3.20914C13.5463 2.18427 14.6065 1.75772 15.7208 2.00964C15.892 2.04686 16.0241 2.17854 16.0572 2.34172C16.2284 3.13757 16.718 3.29216 17.4628 3.52691C17.9013 3.66432 18.3969 3.81891 18.8504 4.1424C19.6043 4.6806 19.6283 5.00982 19.6133 5.69974C19.6133 5.82857 19.6073 5.98029 19.6103 6.16065C19.6163 6.48986 19.6674 6.80191 19.7245 7.13113C19.7815 7.45462 19.8386 7.78957 19.8446 8.14455C19.8506 8.38216 19.6524 8.57682 19.4031 8.58255C19.1568 8.59114 18.9495 8.39933 18.9435 8.16172C18.9375 7.86686 18.8865 7.57771 18.8354 7.26853C18.7753 6.92214 18.7153 6.56716 18.7093 6.1721C18.7093 5.98316 18.7093 5.81998 18.7123 5.68257C18.7203 5.31232 18.5861 5.02795 18.3098 4.82946C17.9764 4.59185 17.592 4.47161 17.1835 4.34279C16.4356 4.10804 15.5977 3.84467 15.2523 2.80549C13.9097 2.68811 13.1198 4.12809 12.8314 4.7808C12.1496 6.32669 12.2698 7.69795 12.5011 7.83536C12.7473 7.81532 12.9696 7.98423 12.9936 8.22184C13.0176 8.45659 12.8374 8.66557 12.5882 8.68847C12.5581 8.68847 12.5251 8.69419 12.495 8.69419H12.498Z" fill="#48523F"/>
<path d="M14.8499 15.9968C14.4024 15.9968 14.138 15.6561 13.9789 15.4529C13.8857 15.3355 13.7986 15.221 13.6905 15.1408C13.4112 14.9318 13.1048 14.846 12.7474 14.7486C12.4351 14.6627 12.0776 14.5654 11.7322 14.365C10.2215 13.4861 10.7771 12.5099 11.1466 11.8658C11.3448 11.5166 11.534 11.1873 11.4679 10.8925C11.4439 10.778 11.2877 10.6262 11.1375 10.4774C10.8192 10.1596 10.3356 9.68153 10.6089 8.9687C10.9153 8.1614 11.9725 8.04976 12.6033 7.98105L12.6483 7.97532C14.2101 7.80642 15.6969 8.30741 17.0695 9.46683C17.2557 9.62428 17.2737 9.89624 17.1085 10.0737C16.9433 10.2512 16.658 10.2684 16.4718 10.1109C15.2974 9.12043 14.0449 8.68815 12.7504 8.82843L12.7054 8.83415C12.3089 8.87709 11.5731 8.95439 11.4559 9.26357C11.3868 9.44678 11.4649 9.56129 11.7893 9.88192C12.0146 10.1052 12.2729 10.36 12.351 10.715C12.4861 11.3219 12.1828 11.8515 11.9395 12.2781C11.564 12.9336 11.4259 13.1798 12.2038 13.635C12.4441 13.7753 12.7144 13.8497 12.9967 13.927C13.3872 14.0358 13.8287 14.156 14.2492 14.4709C14.4534 14.6255 14.5916 14.803 14.7027 14.9462C14.7538 15.0091 14.8258 15.1036 14.8679 15.138C14.8799 15.1351 14.9009 15.1294 14.928 15.1151C15.0541 15.0578 15.0992 14.9805 15.1953 14.7687C15.3394 14.4538 15.5587 13.9757 16.3907 13.8469C16.7301 13.7953 17.0274 13.8297 17.2677 13.8554C17.7242 13.907 17.8443 13.9213 18.0906 13.4947C18.2108 13.2857 18.4841 13.2113 18.7034 13.3258C18.9226 13.4403 19.0007 13.7009 18.8806 13.9098C18.3399 14.846 17.6581 14.7658 17.1596 14.7085C16.9493 14.6828 16.7481 14.6599 16.5378 14.6942C16.1924 14.7486 16.1444 14.8545 16.0242 15.1122C15.9101 15.3584 15.7569 15.6933 15.3094 15.8937C15.1382 15.9682 14.988 15.9996 14.8529 15.9996L14.8499 15.9968Z" fill="#48523F"/>
<path d="M15.1322 13.054C14.9159 13.054 14.7538 12.9825 14.6396 12.8994C14.5135 12.8078 14.4234 12.6905 14.3603 12.5588C14.2221 12.513 14.099 12.4271 14.0179 12.2782C13.9488 12.1523 13.8377 11.8116 14.2822 11.4051C14.2822 11.3908 14.2882 11.3793 14.2882 11.3679C14.3122 11.2419 14.3963 11.1331 14.5135 11.073C14.7207 10.9642 14.8949 10.9556 15.0361 10.9871C15.1142 10.9614 15.2013 10.9585 15.2854 10.9757C15.3695 10.9957 15.4476 11.0358 15.5076 11.0959C15.5136 11.0988 15.5226 11.1045 15.5287 11.1074C15.6788 11.1904 15.832 11.345 15.8771 11.6284C16.0392 11.8975 16.0663 12.2553 15.9431 12.6447C15.9071 12.7563 15.826 12.8508 15.7149 12.9052C15.4866 13.014 15.2944 13.0569 15.1322 13.0569V13.054Z" fill="#48523F"/>
<path d="M16.2162 8.13351C15.6035 8.13351 15.3572 7.87586 15.2581 7.6497C15.129 7.35484 15.2281 7.02848 15.4173 6.76511C15.4323 6.69927 15.4594 6.63915 15.5014 6.58762C15.5735 6.24123 15.7837 5.9664 16.1171 5.80895C16.3394 5.70303 16.6097 5.79177 16.7208 6.00361C16.7809 6.12099 16.7809 6.25268 16.7298 6.36432C16.9641 6.54468 17.0482 6.86817 16.9791 7.32907C16.9611 7.4579 16.883 7.56668 16.7719 7.63253C16.7659 7.67833 16.7569 7.727 16.7509 7.7728C16.7148 7.97033 16.5406 8.11919 16.3304 8.12778C16.2913 8.12778 16.2553 8.12778 16.2192 8.12778L16.2162 8.13351Z" fill="#48523F"/>
<path d="M20.6375 11.7664C20.3491 11.7664 20.0458 11.712 19.8115 11.6118C19.6523 11.5431 19.5502 11.3971 19.5472 11.2311C19.5412 11.0307 19.5832 10.8303 19.6673 10.6528C19.6944 10.4868 19.7815 10.3121 19.9677 10.149C20.199 9.94283 20.4753 9.85408 20.7396 9.87985C20.9378 9.85408 21.142 9.86553 21.3463 9.91992C21.5866 9.9829 21.7277 10.2205 21.6587 10.4495C21.6436 10.4982 21.6226 10.544 21.5926 10.5841C21.6947 10.8503 21.7097 11.1538 21.6076 11.4257C21.5565 11.5603 21.4364 11.6633 21.2922 11.6977C21.1841 11.7235 21.082 11.7378 20.9859 11.7435C20.8777 11.7635 20.7606 11.7721 20.6405 11.7721L20.6375 11.7664Z" fill="#48523F"/>
<path d="M21.6797 7.38601C21.6556 7.38601 21.6346 7.38601 21.6106 7.38029C21.3643 7.34307 21.1961 7.12551 21.2351 6.89076C21.2862 6.57586 21.2111 6.28385 21.127 5.94604C21.0309 5.56529 20.9198 5.13589 21.0039 4.63777C21.1 4.06808 21.4244 3.38101 21.995 2.54508C22.9381 1.16237 24.3408 0.263458 25.9446 0.00867212C26.1879 -0.0314066 26.4222 0.126044 26.4642 0.360791C26.5063 0.595537 26.3381 0.815969 26.0948 0.856048C24.7252 1.07362 23.5689 1.8208 22.7519 3.01457C22.2563 3.73885 21.968 4.33144 21.8959 4.77231C21.8419 5.10152 21.9169 5.39926 22.004 5.74565C22.1001 6.11781 22.2053 6.5415 22.1272 7.02244C22.0941 7.23429 21.9019 7.38601 21.6827 7.38601H21.6797Z" fill="#48523F"/>
<path d="M23.62 9.6705C23.4758 9.6705 23.3376 9.60466 23.2475 9.48442C23.1064 9.28975 23.1574 9.02065 23.3617 8.8861C25.7464 7.31445 27.4224 2.95732 25.8636 0.66138C25.7284 0.460986 25.7885 0.19761 25.9987 0.0687857C26.209 -0.0600386 26.4853 -0.00277987 26.6205 0.197614C28.5817 3.09187 26.3621 7.9557 23.8722 9.59606C23.7942 9.64759 23.7041 9.67336 23.617 9.67336L23.62 9.6705Z" fill="#48523F"/>
<path d="M26.245 6.407C26.167 6.407 26.0859 6.38696 26.0108 6.34402C25.7975 6.22092 25.7284 5.95754 25.8576 5.75429C26.3592 4.9613 27.2602 4.42882 28.4616 4.21125C30.2097 3.89349 32.3692 4.31145 33.5946 5.19891C33.7928 5.34205 33.8319 5.61115 33.6787 5.80009C33.5285 5.98904 33.2462 6.02625 33.048 5.88025C32.0238 5.13593 30.1256 4.78095 28.6298 5.05291C27.972 5.17314 27.092 5.46801 26.6295 6.19801C26.5454 6.33256 26.3952 6.40413 26.245 6.40413V6.407Z" fill="#48523F"/>
<path d="M25.0857 12.5073C24.9686 12.5073 24.8545 12.5073 24.7373 12.4988C24.488 12.4873 24.2988 12.284 24.3108 12.0464C24.3229 11.8088 24.5361 11.6256 24.7854 11.6399C28.3505 11.8174 32.3182 8.91744 33.1111 5.55655C33.1651 5.32467 33.4054 5.17866 33.6487 5.23306C33.892 5.28459 34.0452 5.51361 33.9881 5.74549C33.1351 9.36689 28.9542 12.5073 25.0857 12.5073Z" fill="#48523F"/>
<path d="M25.332 10.432C25.332 10.432 25.302 10.432 25.287 10.432C25.0407 10.4091 24.8575 10.1972 24.8845 9.96247C25.0587 8.29634 27.888 6.86782 29.3717 6.64453C29.618 6.60731 29.8493 6.76763 29.8883 7.00237C29.9274 7.23712 29.7592 7.45755 29.5129 7.49477C28.1883 7.69516 25.8937 8.97195 25.7825 10.0512C25.7585 10.2716 25.5633 10.4377 25.335 10.4377L25.332 10.432Z" fill="#48523F"/>
<path d="M23.8482 6.73332C23.6049 6.73332 23.4037 6.54724 23.3977 6.31536C23.3767 5.47371 23.6981 4.90402 24.0104 4.35151C24.1756 4.05664 24.3348 3.77895 24.4459 3.44973C24.524 3.22357 24.7793 3.10334 25.0136 3.17777C25.2509 3.2522 25.377 3.49553 25.2989 3.71883C25.1608 4.11675 24.9775 4.44311 24.8003 4.75801C24.521 5.25327 24.2807 5.67982 24.2957 6.29532C24.3018 6.53293 24.1035 6.73046 23.8572 6.73618C23.8542 6.73618 23.8512 6.73618 23.8452 6.73618L23.8482 6.73332Z" fill="#48523F"/>
<path d="M10.684 15.4219C8.69566 15.4219 6.62925 14.981 4.75207 13.4322C2.35828 11.4569 1.11784 8.62567 0.141701 6.12647C0.0545999 5.90318 0.174741 5.65698 0.40601 5.57396C0.637279 5.49094 0.898581 5.60546 0.985682 5.82589C1.91977 8.22488 3.10615 10.9388 5.34075 12.7795C7.7886 14.8006 10.669 14.7119 13.1679 14.3598C13.4141 14.3254 13.6424 14.4886 13.6784 14.7205C13.7145 14.9552 13.5433 15.1728 13.3 15.2072C12.462 15.3245 11.582 15.4161 10.684 15.4161V15.4219Z" fill="#48523F"/>
<path d="M10.6089 10.4317C10.4857 10.4317 10.3626 10.3831 10.2755 10.2915C7.94177 7.83236 4.50577 7.1825 1.18391 6.55556C0.910588 6.50403 0.63427 6.4525 0.360952 6.39811C0.117669 6.3523 -0.0415203 6.12328 0.00953911 5.89139C0.057595 5.65951 0.297876 5.50779 0.541159 5.55646C0.814477 5.60799 1.08779 5.65952 1.36111 5.71105C4.82714 6.36662 8.41031 7.04223 10.9453 9.71319C11.1135 9.88781 11.0984 10.1598 10.9122 10.3201C10.8251 10.3945 10.717 10.4317 10.6089 10.4317Z" fill="#48523F"/>
<path d="M10.6089 12.6078H10.6029C8.91189 12.5849 7.39512 11.5343 6.22376 9.56183C6.10062 9.35571 6.1757 9.09233 6.39196 8.97782C6.60821 8.86045 6.88453 8.93202 7.00467 9.13814C8.02586 10.8529 9.23927 11.7318 10.6149 11.749C10.8642 11.7518 11.0624 11.9465 11.0594 12.1841C11.0564 12.4189 10.8552 12.6078 10.6089 12.6078Z" fill="#48523F"/>
<path d="M7.86967 7.71258C7.74353 7.71258 7.61738 7.66105 7.52728 7.56371C6.04055 5.91762 6.10362 3.89652 6.27782 2.13019C6.30185 1.89545 6.5241 1.72082 6.76739 1.74372C7.01367 1.76662 7.19689 1.9756 7.17286 2.21035C6.97163 4.24005 7.07675 5.74872 8.20907 7.00261C8.37125 7.18297 8.35023 7.45493 8.16101 7.60952C8.07691 7.67822 7.97179 7.71258 7.86667 7.71258H7.86967Z" fill="#48523F"/>
<path d="M11.1795 7.92964C11.1314 7.92964 11.0804 7.92105 11.0323 7.90673C9.80689 7.50595 8.86379 6.46963 8.56945 5.19856C8.51538 4.96668 8.66856 4.73766 8.91184 4.68613C9.15513 4.6346 9.39541 4.7806 9.44947 5.01248C9.67173 5.97724 10.4076 6.79312 11.3237 7.09085C11.5579 7.16814 11.6841 7.41148 11.603 7.63763C11.5399 7.81513 11.3627 7.92678 11.1765 7.92678L11.1795 7.92964Z" fill="#48523F"/>
<path d="M11.5219 6.51569C11.3507 6.51569 11.1855 6.42122 11.1105 6.26376C10.4437 4.86674 8.08894 2.67385 6.65927 2.81413C6.41299 2.83989 6.19073 2.66527 6.1667 2.43052C6.14267 2.19577 6.32289 1.98393 6.56917 1.96103C8.59953 1.7635 11.2336 4.44304 11.9334 5.90878C12.0355 6.12348 11.9334 6.37828 11.7081 6.47847C11.6481 6.50424 11.585 6.51569 11.5219 6.51569Z" fill="#48523F"/>
</svg>
