<svg width="72" height="9" viewBox="0 0 72 9" fill="none" xmlns="http://www.w3.org/2000/svg">
<path d="M4.98208 9C4.9303 9 4.87482 8.99163 4.82304 8.97489C4.53084 8.87447 4.36069 8.52717 4.44946 8.19242C4.49015 8.03341 4.53084 7.87859 4.56783 7.72377C4.79345 6.83249 5.00428 5.99142 5.58498 5.14199C5.71813 4.94951 5.85868 4.76122 5.99923 4.57292C6.60953 3.75696 6.9794 3.21299 6.87583 2.39703C6.76117 1.50994 6.28774 1.2296 5.87348 1.2547C5.39634 1.28818 4.87852 1.75265 4.86003 2.69413C4.85263 3.04144 4.60852 3.30924 4.29412 3.30924C3.98713 3.30087 3.74301 3.01633 3.75041 2.66903C3.78 1.01201 4.80824 0.0746952 5.8032 0.00356052C6.6983 -0.055021 7.76724 0.606121 7.97067 2.2213C8.15191 3.6398 7.45654 4.56455 6.84255 5.38469C6.71309 5.55625 6.58363 5.732 6.46158 5.91193C6.01033 6.57306 5.84389 7.23419 5.63306 8.07106C5.59238 8.23007 5.55168 8.38909 5.511 8.55228C5.44072 8.82427 5.21881 9 4.97839 9H4.98208Z" fill="#48523F"/>
<path d="M4.886 8.78242C4.76025 8.78242 4.63448 8.73638 4.53092 8.63596C4.30529 8.42255 4.03159 8.17986 3.73199 7.91624C2.25249 6.61071 0.225588 4.8198 0.0221571 3.00377C-0.129491 1.66058 0.506693 0.581008 1.64221 0.254625C2.79621 -0.0801261 4.3016 0.493136 4.82682 2.02044C4.93779 2.34264 4.79723 2.70668 4.51243 2.83221C4.22763 2.95774 3.90583 2.79873 3.79487 2.47654C3.49158 1.59781 2.60388 1.27562 1.91961 1.47228C1.57563 1.57271 1.01712 1.88235 1.12438 2.84476C1.27233 4.14611 3.16608 5.81987 4.41626 6.92454C4.72695 7.20071 5.01176 7.45178 5.24478 7.67355C5.4815 7.89533 5.51108 8.29284 5.31505 8.55645C5.20409 8.70291 5.04874 8.78242 4.8897 8.78242H4.886Z" fill="#48523F"/>
<path d="M20.4279 8.18421C20.3211 8.18421 20.2101 8.15623 20.1114 8.10028C19.8195 7.92842 19.7249 7.56072 19.8976 7.27696C20.2347 6.72941 20.6993 6.21782 21.1515 5.71823C22.0642 4.71105 22.9276 3.75584 22.7467 2.60878C22.6932 2.28105 22.5617 1.8614 22.2122 1.7375C21.9286 1.63359 21.5339 1.7375 21.2132 2.00128C20.7938 2.345 20.6047 2.86857 20.7075 3.39614C20.7733 3.71987 20.5513 4.03561 20.2183 4.09956C19.8812 4.15951 19.5605 3.94769 19.4947 3.62395C19.3056 2.66474 19.6509 1.71751 20.4156 1.08603C21.0816 0.538483 21.9368 0.358633 22.6398 0.614423C23.0509 0.762302 23.7622 1.19794 23.9595 2.42494C24.2309 4.12754 23.0838 5.3905 22.0683 6.50958C21.6367 6.98519 21.2255 7.43683 20.9501 7.88845C20.835 8.0763 20.6294 8.18021 20.4197 8.18021L20.4279 8.18421Z" fill="#48523F"/>
<path d="M20.2143 8.49606C19.9552 8.49606 19.7127 8.33619 19.6304 8.0844C19.2728 7.02127 18.7876 6.36981 17.9119 5.76231C17.7804 5.67038 17.6488 5.58645 17.5214 5.50252C16.6991 4.96696 15.6754 4.2995 16.0989 2.74478C16.4812 1.33793 17.8996 0.742433 18.9932 0.994226C19.91 1.20605 20.6994 2.04137 20.3951 3.42823C20.3253 3.75196 19.9964 3.95979 19.6633 3.88785C19.3303 3.8199 19.1165 3.50017 19.1906 3.17643C19.2769 2.78475 19.2645 2.28916 18.7095 2.16126C18.2655 2.05735 17.509 2.26917 17.2953 3.04853C17.1061 3.74396 17.3652 3.95179 18.2162 4.50733C18.3519 4.59526 18.4957 4.68719 18.6355 4.78711C19.7373 5.55048 20.3664 6.39779 20.8104 7.71271C20.9173 8.02845 20.7405 8.36417 20.4157 8.46808C20.3499 8.48807 20.2883 8.50006 20.2225 8.50006L20.2143 8.49606Z" fill="#48523F"/>
<path d="M35.9145 8.4961C35.8928 8.4961 35.871 8.4961 35.8456 8.4922C35.5483 8.45327 35.3343 8.16123 35.3706 7.84194C35.5446 6.31166 35.8928 5.80546 36.8356 4.75023C37.5137 3.99093 37.851 3.32119 37.9017 2.63587C37.9199 2.37888 37.9162 1.9233 37.6551 1.74807C37.4629 1.61958 37.1438 1.65072 36.8646 1.82984C36.4585 2.08684 36.2336 2.56188 36.2627 3.09534C36.2808 3.41853 36.0487 3.69499 35.7513 3.71056C35.454 3.72224 35.1929 3.48083 35.1784 3.16153C35.1276 2.18417 35.5519 1.30806 36.3134 0.825223C36.9553 0.416369 37.6914 0.393009 38.2353 0.755137C38.5544 0.969298 39.0803 1.51444 38.9896 2.72932C38.9171 3.68331 38.471 4.61004 37.6225 5.56014C36.8102 6.46741 36.5926 6.75555 36.4512 7.98601C36.4186 8.28194 36.1829 8.5 35.9109 8.5L35.9145 8.4961Z" fill="#48523F"/>
<path d="M35.7224 8.49588C35.4903 8.49588 35.2764 8.33623 35.2038 8.09091C34.8485 6.8955 34.4242 5.96487 33.5176 5.30292C33.3907 5.20947 33.271 5.1316 33.1586 5.05762C32.5712 4.66823 31.962 4.26716 32.0019 2.99777C32.0526 1.3351 32.9121 0.949607 33.2783 0.856155C34.3662 0.58748 35.5737 1.56094 36.1104 2.65511C36.2518 2.93936 36.1467 3.2937 35.882 3.44556C35.6172 3.59742 35.2872 3.4845 35.1458 3.20025C34.7506 2.39422 33.9455 1.88802 33.5176 1.99705C33.1659 2.08271 33.097 2.68626 33.0825 3.03671C33.0643 3.62858 33.1913 3.71034 33.7243 4.06078C33.8512 4.14255 33.9854 4.23212 34.1268 4.33725C35.3634 5.23673 35.8711 6.50222 36.2373 7.73657C36.328 8.04419 36.172 8.37127 35.8856 8.46862C35.8312 8.48809 35.7732 8.49588 35.7188 8.49588H35.7224Z" fill="#48523F"/>
<path d="M51.5282 8.7801C51.4488 8.7801 51.3694 8.76319 51.2938 8.72089C51.0101 8.57707 50.8853 8.2006 51.0139 7.87912C51.3089 7.1558 51.7854 6.44941 52.2846 5.70071C53.0939 4.49518 53.9334 3.24735 53.8578 2.08412C53.8426 1.83878 53.7821 1.40733 53.559 1.30158C53.3737 1.21275 52.9729 1.29735 52.5417 1.69074C52.1068 2.08835 51.6455 2.82436 51.7892 3.58997C51.8535 3.9326 51.6568 4.27099 51.3505 4.33867C51.0442 4.41058 50.7416 4.19062 50.6811 3.84799C50.4807 2.7609 50.9307 1.53 51.827 0.709389C52.5569 0.045289 53.3699 -0.17044 54.0091 0.138345C54.3418 0.299083 54.9091 0.751692 54.9923 1.99529C55.0982 3.63228 54.0885 5.13812 53.196 6.46632C52.7308 7.1558 52.2921 7.80721 52.0463 8.40786C51.9518 8.64051 51.7438 8.7801 51.532 8.7801H51.5282Z" fill="#48523F"/>
<path d="M51.2295 9.00011C50.9723 9.00011 50.7379 8.8013 50.6774 8.50943C50.4618 7.48579 50.0912 6.70748 49.5466 6.13221C49.3727 5.95032 49.0928 5.75574 48.7978 5.54848C47.9507 4.96052 46.6725 4.07223 47.0771 2.48177C47.1982 2.01225 47.4705 1.63578 47.8713 1.39044C48.5936 0.942071 49.5731 1.01821 50.1933 1.22125C51.3921 1.6104 51.6871 2.6425 51.9707 3.63654C52.0652 3.9707 51.8989 4.32602 51.6039 4.43177C51.3051 4.53752 50.9875 4.3514 50.8929 4.02146C50.6131 3.04012 50.4769 2.62982 49.8794 2.43947C49.437 2.29565 48.794 2.27027 48.4234 2.50292C48.2457 2.6129 48.1965 2.74402 48.1739 2.83285C48.0264 3.40812 48.4159 3.78882 49.4029 4.47407C49.7508 4.71518 50.076 4.94359 50.3332 5.21007C51.048 5.963 51.5245 6.94435 51.793 8.21757C51.8648 8.56019 51.6757 8.89858 51.3694 8.97895C51.324 8.99164 51.2824 8.99587 51.2408 8.99587L51.2295 9.00011Z" fill="#48523F"/>
<path d="M68.3735 8.99588C68.238 8.99588 68.0987 8.94638 67.9903 8.84326C67.7504 8.6164 67.7272 8.22455 67.94 7.96882C69.2519 6.3808 70.6992 4.23594 70.8192 2.98203C70.9004 2.1612 70.6915 1.57962 70.2348 1.34451C69.8595 1.15065 69.3603 1.22901 69.0778 1.52187C68.7411 1.87247 68.8533 2.37157 69.0081 2.73042C69.1397 3.03978 69.012 3.40687 68.7217 3.55124C68.4315 3.69561 68.0871 3.55537 67.9516 3.24601C67.5298 2.2602 67.6459 1.28677 68.2651 0.639184C68.8997 -0.0248974 69.9175 -0.189882 70.7418 0.23084C71.1752 0.453575 72.1659 1.17952 71.9762 3.10989C71.7982 4.93302 69.9175 7.44911 68.8146 8.78965C68.6985 8.92989 68.5399 9 68.3773 9L68.3735 8.99588Z" fill="#48523F"/>
<path d="M68.1721 8.67423C67.9632 8.67423 67.762 8.5546 67.6575 8.34424C67.3208 7.65954 66.4656 7.12745 65.6413 6.60774C64.4765 5.87766 63.2691 5.12283 63.0292 3.75342C62.766 2.25202 64.3372 1.05173 65.5291 0.791869C66.9222 0.486639 67.8084 1.36521 68.594 2.13653L68.6675 2.21078C68.9035 2.44176 68.919 2.83361 68.6984 3.08522C68.4817 3.33682 68.1141 3.34921 67.878 3.11822L67.8007 3.04397C67.0151 2.26852 66.5314 1.83543 65.7574 2.00454C65.0686 2.15303 64.0586 2.91198 64.1669 3.52656C64.3101 4.34326 65.2388 4.92484 66.2256 5.54355C67.1931 6.14988 68.1915 6.77273 68.683 7.77091C68.83 8.07202 68.7217 8.44737 68.4392 8.60823C68.354 8.65773 68.2611 8.67834 68.1683 8.67834L68.1721 8.67423Z" fill="#48523F"/>
</svg>
