<svg width="14" height="14" viewBox="0 0 14 14" fill="none" xmlns="http://www.w3.org/2000/svg">
<path d="M11.0832 11.0833H4.6665C4.34567 11.0833 4.07102 10.969 3.84255 10.7405C3.61407 10.5121 3.49984 10.2374 3.49984 9.91658V1.74992C3.49984 1.42909 3.61407 1.15443 3.84255 0.92596C4.07102 0.697488 4.34567 0.583252 4.6665 0.583252H8.74984L12.2498 4.08325V9.91658C12.2498 10.2374 12.1356 10.5121 11.9071 10.7405C11.6787 10.969 11.404 11.0833 11.0832 11.0833ZM8.1665 4.66659V1.74992H4.6665V9.91658H11.0832V4.66659H8.1665ZM2.33317 13.4166C2.01234 13.4166 1.73768 13.3023 1.50921 13.0739C1.28074 12.8454 1.1665 12.5708 1.1665 12.2499V4.08325H2.33317V12.2499H8.74984V13.4166H2.33317Z" fill="#3d3b3d"/>
</svg>
